<svg width="256" height="256" viewBox="0 0 256 256" xmlns="http://www.w3.org/2000/svg" role="img" aria-labelledby="title desc">
  <title id="title">TheCourtyard Tree Logo</title>
  <desc id="desc">Stylized green banyan-like tree logo.</desc>
  <g fill="#184f1f" stroke="#184f1f" stroke-linecap="round" stroke-linejoin="round">
    <path d="M28 110c0-14 10-24 24-24 6-22 26-36 50-36 11 0 22 3 30 10 8-7 19-10 30-10 24 0 44 14 50 36 14 0 24 10 24 24 0 14-10 24-24 24H52c-14 0-24-10-24-24Z"/>
    <path d="M116 98c0-8 6-14 12-14s12 6 12 14v52c0 10 2 20 6 29l3 7h-42l3-7c4-9 6-19 6-29V98Z"/>
    <path d="M128 134c-9 11-24 18-42 20M128 134c9 11 24 18 42 20" fill="none" stroke-width="7"/>
    <path d="M63 138v30M82 136v36M99 136v28M157 136v30M174 136v34M193 138v30" fill="none" stroke-width="5"/>
    <path d="M69 196c12-12 24-16 36-14M97 198c10-9 20-13 31-12M125 202c11-11 21-16 31-17M151 198c9-9 18-13 28-13M54 202c8-8 16-11 24-10" fill="none" stroke-width="6"/>
  </g>
  <g fill="#2f7f35" opacity="0.95">
    <ellipse cx="72" cy="84" rx="26" ry="16"/>
    <ellipse cx="112" cy="75" rx="30" ry="18"/>
    <ellipse cx="154" cy="74" rx="30" ry="18"/>
    <ellipse cx="190" cy="86" rx="24" ry="14"/>
  </g>
</svg>
